<?xml version="1.0" encoding="UTF-8"?>
<svg id="logo" xmlns="http://www.w3.org/2000/svg" viewBox="0 0 32 32">
  <path d="m26.21,22.29c-4.18,6.77-11.19,10.24-16.66,8.63-.95-.28-1.66-1.06-1.84-2.03-.35-1.9-.11-3.86.89-5.72,1.61-3.21,4.63-5.36,7.48-7.46,2.91-2.19,6.61-4.74,7.82-8.36.6-1.84.3-3.64-.57-5.1-.23-.38.18-.82.57-.63.25.12.49.26.73.41,5.64,3.48,6.34,12.55,1.58,20.26Z"/>
  <path d="m14.96,14.14c-3.07,2.1-6.44,4.58-8.15,8.12-.91,1.79-1.24,3.58-1.14,5.3.02.37-.44.55-.66.26-3.35-4.29-3.19-11.68.79-18.13C9.05,4.4,14.04,1.13,18.66.71c1.92-.17,3.74,1.01,4.23,2.88.27,1.05.23,2.18-.25,3.31-1.46,3.21-4.85,5.19-7.69,7.24Z"/>
</svg>